<svg xmlns="http://www.w3.org/2000/svg" xmlns:xlink="http://www.w3.org/1999/xlink" width="40" zoomAndPan="magnify" viewBox="0 0 30 30.000001" height="40" preserveAspectRatio="xMidYMid meet" version="1.0"><defs><filter x="0%" y="0%" width="100%" height="100%" id="361bb0b716"><feColorMatrix values="0 0 0 0 1 0 0 0 0 1 0 0 0 0 1 0 0 0 1 0" color-interpolation-filters="sRGB"/></filter><g/><mask id="17e944c20f"><g filter="url(#361bb0b716)"><rect x="-3" width="36" fill="#000000" y="-3" height="36.000001" fill-opacity="0.8667"/></g></mask><clipPath id="9969a10959"><path d="M 0.753906 0.269531 L 27.609375 0.269531 L 27.609375 27.125 L 0.753906 27.125 Z M 0.753906 0.269531 " clip-rule="nonzero"/></clipPath><clipPath id="748ae5e04a"><rect x="0" width="28" y="0" height="28"/></clipPath></defs><g mask="url(#17e944c20f)"><g transform="matrix(1, 0, 0, 1, 1, 1)"><g clip-path="url(#748ae5e04a)"><g clip-path="url(#9969a10959)"><path fill="#000000" d="M 0.753906 0.269531 L 0.753906 27.125 L 27.609375 27.125 L 27.609375 0.269531 Z M 26.921875 26.4375 L 1.441406 26.4375 L 1.441406 0.957031 L 26.921875 0.957031 Z M 26.921875 26.4375 " fill-opacity="1" fill-rule="nonzero"/></g></g></g></g><g fill="#000000" fill-opacity="1"><g transform="translate(7.496584, 11.877567)"><g><path d="M 5.390625 -4.84375 L 5.390625 0 L 4.484375 0 L 4.484375 -2.21875 L 2.96875 -0.0625 L 2.953125 -0.0625 L 1.484375 -2.078125 L 1.484375 0 L 0.59375 0 L 0.59375 -4.84375 L 0.609375 -4.84375 L 2.96875 -1.5 Z M 5.390625 -4.84375 "/></g></g></g><g fill="#000000" fill-opacity="1"><g transform="translate(13.499888, 11.877567)"><g><path d="M 0.234375 -1.421875 C 0.234375 -1.703125 0.300781 -1.953125 0.4375 -2.171875 C 0.570312 -2.398438 0.757812 -2.578125 1 -2.703125 C 1.238281 -2.828125 1.515625 -2.890625 1.828125 -2.890625 C 2.140625 -2.890625 2.410156 -2.828125 2.640625 -2.703125 C 2.878906 -2.578125 3.0625 -2.398438 3.1875 -2.171875 C 3.3125 -1.953125 3.375 -1.703125 3.375 -1.421875 C 3.375 -1.140625 3.3125 -0.882812 3.1875 -0.65625 C 3.0625 -0.425781 2.878906 -0.242188 2.640625 -0.109375 C 2.410156 0.015625 2.132812 0.078125 1.8125 0.078125 C 1.507812 0.078125 1.238281 0.0195312 1 -0.09375 C 0.757812 -0.21875 0.570312 -0.390625 0.4375 -0.609375 C 0.300781 -0.835938 0.234375 -1.109375 0.234375 -1.421875 Z M 1.125 -1.40625 C 1.125 -1.1875 1.1875 -1.003906 1.3125 -0.859375 C 1.445312 -0.710938 1.609375 -0.640625 1.796875 -0.640625 C 2.003906 -0.640625 2.171875 -0.710938 2.296875 -0.859375 C 2.421875 -1.003906 2.484375 -1.1875 2.484375 -1.40625 C 2.484375 -1.632812 2.421875 -1.816406 2.296875 -1.953125 C 2.171875 -2.097656 2.003906 -2.171875 1.796875 -2.171875 C 1.609375 -2.171875 1.445312 -2.097656 1.3125 -1.953125 C 1.1875 -1.804688 1.125 -1.625 1.125 -1.40625 Z M 1.125 -1.40625 "/></g></g></g><g fill="#000000" fill-opacity="1"><g transform="translate(17.115803, 11.877567)"><g><path d="M 2.203125 0 L 1.5625 -0.828125 L 0.96875 0 L 0.09375 0 L 1.125 -1.390625 L 0.0625 -2.765625 L 1.15625 -2.765625 L 1.765625 -1.96875 L 2.234375 -2.765625 L 3.109375 -2.765625 L 2.171875 -1.4375 L 3.265625 0 Z M 2.203125 0 "/></g></g></g><g fill="#000000" fill-opacity="1"><g transform="translate(20.442037, 11.877567)"><g/></g></g><g fill="#000000" fill-opacity="1"><g transform="translate(2.895588, 20.320971)"><g><path d="M 3.109375 0 L 2.125 -1.484375 L 1.515625 -1.484375 L 1.515625 0 L 0.59375 0 L 0.59375 -4.65625 L 2.015625 -4.65625 C 2.585938 -4.65625 3.03125 -4.515625 3.34375 -4.234375 C 3.664062 -3.953125 3.828125 -3.570312 3.828125 -3.09375 C 3.828125 -2.800781 3.765625 -2.53125 3.640625 -2.28125 C 3.523438 -2.03125 3.34375 -1.832031 3.09375 -1.6875 L 4.1875 0 Z M 1.515625 -2.359375 L 2.171875 -2.359375 C 2.421875 -2.359375 2.601562 -2.429688 2.71875 -2.578125 C 2.832031 -2.722656 2.890625 -2.882812 2.890625 -3.0625 C 2.890625 -3.226562 2.835938 -3.382812 2.734375 -3.53125 C 2.640625 -3.6875 2.453125 -3.765625 2.171875 -3.765625 L 1.515625 -3.765625 Z M 1.515625 -2.359375 "/></g></g></g><g fill="#000000" fill-opacity="1"><g transform="translate(7.239749, 20.320971)"><g><path d="M 3.4375 -2.765625 L 3.4375 0 L 2.546875 0 L 2.546875 -0.34375 C 2.273438 -0.0625 1.96875 0.078125 1.625 0.078125 C 1.207031 0.078125 0.867188 -0.0390625 0.609375 -0.28125 C 0.359375 -0.53125 0.234375 -0.894531 0.234375 -1.375 C 0.234375 -1.675781 0.296875 -1.941406 0.421875 -2.171875 C 0.546875 -2.410156 0.710938 -2.59375 0.921875 -2.71875 C 1.128906 -2.84375 1.351562 -2.90625 1.59375 -2.90625 C 1.832031 -2.90625 2.023438 -2.867188 2.171875 -2.796875 C 2.316406 -2.722656 2.441406 -2.617188 2.546875 -2.484375 L 2.609375 -2.765625 Z M 1.875 -0.640625 C 2.175781 -0.640625 2.398438 -0.78125 2.546875 -1.0625 L 2.546875 -1.734375 C 2.492188 -1.867188 2.40625 -1.976562 2.28125 -2.0625 C 2.15625 -2.144531 2.007812 -2.1875 1.84375 -2.1875 C 1.644531 -2.1875 1.476562 -2.113281 1.34375 -1.96875 C 1.207031 -1.820312 1.140625 -1.640625 1.140625 -1.421875 C 1.140625 -1.273438 1.171875 -1.140625 1.234375 -1.015625 C 1.304688 -0.898438 1.394531 -0.804688 1.5 -0.734375 C 1.613281 -0.671875 1.738281 -0.640625 1.875 -0.640625 Z M 1.875 -0.640625 "/></g></g></g><g fill="#000000" fill-opacity="1"><g transform="translate(11.127967, 20.320971)"><g><path d="M 1.59375 -3.984375 L 1.59375 -2.78125 L 2.265625 -2.78125 L 2.265625 -2.09375 L 1.59375 -2.09375 L 1.59375 0 L 0.71875 0 L 0.71875 -2.09375 L 0.28125 -2.09375 L 0.28125 -2.78125 L 0.71875 -2.78125 L 0.71875 -3.984375 Z M 1.59375 -3.984375 "/></g></g></g><g fill="#000000" fill-opacity="1"><g transform="translate(13.623007, 20.320971)"><g><path d="M 2.375 -2.890625 C 2.632812 -2.890625 2.851562 -2.8125 3.03125 -2.65625 C 3.207031 -2.507812 3.296875 -2.3125 3.296875 -2.0625 L 3.296875 0 L 2.421875 0 L 2.421875 -1.734375 C 2.398438 -2.003906 2.265625 -2.140625 2.015625 -2.140625 C 1.804688 -2.140625 1.640625 -2.046875 1.515625 -1.859375 C 1.398438 -1.671875 1.34375 -1.425781 1.34375 -1.125 L 1.34375 0 L 0.453125 0 L 0.453125 -5 L 1.328125 -5 L 1.328125 -2.328125 C 1.421875 -2.503906 1.554688 -2.640625 1.734375 -2.734375 C 1.921875 -2.835938 2.132812 -2.890625 2.375 -2.890625 Z M 2.375 -2.890625 "/></g></g></g><g fill="#000000" fill-opacity="1"><g transform="translate(17.384571, 20.320971)"><g><path d="M 0.234375 -1.421875 C 0.234375 -1.703125 0.300781 -1.953125 0.4375 -2.171875 C 0.570312 -2.398438 0.757812 -2.578125 1 -2.703125 C 1.238281 -2.828125 1.515625 -2.890625 1.828125 -2.890625 C 2.140625 -2.890625 2.410156 -2.828125 2.640625 -2.703125 C 2.878906 -2.578125 3.0625 -2.398438 3.1875 -2.171875 C 3.3125 -1.953125 3.375 -1.703125 3.375 -1.421875 C 3.375 -1.140625 3.3125 -0.882812 3.1875 -0.65625 C 3.0625 -0.425781 2.878906 -0.242188 2.640625 -0.109375 C 2.410156 0.015625 2.132812 0.078125 1.8125 0.078125 C 1.507812 0.078125 1.238281 0.0195312 1 -0.09375 C 0.757812 -0.21875 0.570312 -0.390625 0.4375 -0.609375 C 0.300781 -0.835938 0.234375 -1.109375 0.234375 -1.421875 Z M 1.125 -1.40625 C 1.125 -1.1875 1.1875 -1.003906 1.3125 -0.859375 C 1.445312 -0.710938 1.609375 -0.640625 1.796875 -0.640625 C 2.003906 -0.640625 2.171875 -0.710938 2.296875 -0.859375 C 2.421875 -1.003906 2.484375 -1.1875 2.484375 -1.40625 C 2.484375 -1.632812 2.421875 -1.816406 2.296875 -1.953125 C 2.171875 -2.097656 2.003906 -2.171875 1.796875 -2.171875 C 1.609375 -2.171875 1.445312 -2.097656 1.3125 -1.953125 C 1.1875 -1.804688 1.125 -1.625 1.125 -1.40625 Z M 1.125 -1.40625 "/></g></g></g><g fill="#000000" fill-opacity="1"><g transform="translate(21.000486, 20.320971)"><g><path d="M 1.328125 -2.125 C 1.398438 -2.28125 1.5 -2.414062 1.625 -2.53125 C 1.757812 -2.644531 1.894531 -2.734375 2.03125 -2.796875 C 2.175781 -2.867188 2.289062 -2.90625 2.375 -2.90625 L 2.328125 -2.015625 C 2.304688 -2.023438 2.269531 -2.03125 2.21875 -2.03125 C 2.039062 -2.03125 1.882812 -1.984375 1.75 -1.890625 C 1.613281 -1.796875 1.507812 -1.675781 1.4375 -1.53125 C 1.363281 -1.382812 1.328125 -1.234375 1.328125 -1.078125 L 1.328125 0 L 0.453125 0 L 0.453125 -2.765625 L 1.25 -2.765625 Z M 1.328125 -2.125 "/></g></g></g><g fill="#000000" fill-opacity="1"><g transform="translate(23.596848, 20.320971)"><g><path d="M 1.828125 -0.671875 C 2.003906 -0.671875 2.191406 -0.734375 2.390625 -0.859375 L 2.78125 -0.203125 C 2.625 -0.117188 2.460938 -0.0507812 2.296875 0 C 2.128906 0.0507812 1.96875 0.078125 1.8125 0.078125 C 1.488281 0.078125 1.207031 0.015625 0.96875 -0.109375 C 0.726562 -0.234375 0.546875 -0.40625 0.421875 -0.625 C 0.296875 -0.851562 0.234375 -1.113281 0.234375 -1.40625 C 0.234375 -1.675781 0.304688 -1.925781 0.453125 -2.15625 C 0.597656 -2.382812 0.789062 -2.5625 1.03125 -2.6875 C 1.28125 -2.820312 1.546875 -2.890625 1.828125 -2.890625 C 2.234375 -2.890625 2.5625 -2.773438 2.8125 -2.546875 C 3.070312 -2.316406 3.238281 -1.988281 3.3125 -1.5625 L 1.28125 -0.90625 C 1.414062 -0.75 1.597656 -0.671875 1.828125 -0.671875 Z M 1.765625 -2.203125 C 1.566406 -2.203125 1.40625 -2.132812 1.28125 -2 C 1.164062 -1.863281 1.109375 -1.6875 1.109375 -1.46875 L 1.109375 -1.40625 L 2.328125 -1.8125 C 2.242188 -2.070312 2.054688 -2.203125 1.765625 -2.203125 Z M 1.765625 -2.203125 "/></g></g></g></svg>